<?xml version="1.0" encoding="UTF-8"?>
<svg id="Layer_2" xmlns="http://www.w3.org/2000/svg" xmlns:xlink="http://www.w3.org/1999/xlink" viewBox="0 0 776.33 344.41">
  <defs>
    <style>
      .cls-1 {
        fill: url(#radial-gradient-2);
      }

      .cls-2 {
        stroke: #cccbb8;
      }

      .cls-2, .cls-3, .cls-4 {
        fill: none;
        stroke-miterlimit: 10;
        stroke-width: 3px;
      }

      .cls-3 {
        stroke: #b5b369;
      }

      .cls-5 {
        fill: url(#linear-gradient-5);
      }

      .cls-6 {
        fill: url(#linear-gradient-6);
      }

      .cls-7 {
        fill: url(#linear-gradient-4);
      }

      .cls-8 {
        fill: url(#linear-gradient-3);
      }

      .cls-9 {
        fill: url(#linear-gradient-2);
      }

      .cls-10 {
        fill: url(#radial-gradient);
      }

      .cls-11 {
        fill: url(#linear-gradient);
      }

      .cls-4 {
        stroke: #d1d1d1;
      }
    </style>
    <radialGradient id="radial-gradient" cx="296.1" cy="-75.82" fx="296.1" fy="-75.82" r="251.75" gradientUnits="userSpaceOnUse">
      <stop offset="0" stop-color="#fff"/>
      <stop offset="1" stop-color="#7a72ff"/>
    </radialGradient>
    <linearGradient id="linear-gradient" x1="260.69" y1="149.46" x2="538.36" y2="149.46" gradientUnits="userSpaceOnUse">
      <stop offset="0" stop-color="#fff"/>
      <stop offset="1" stop-color="#7ad8ff"/>
    </linearGradient>
    <linearGradient id="linear-gradient-2" x1="397.98" y1="278.72" x2="510.65" y2="278.72" xlink:href="#linear-gradient"/>
    <linearGradient id="linear-gradient-3" x1="255.76" y1="80.81" x2="475.99" y2="80.81" xlink:href="#linear-gradient"/>
    <linearGradient id="linear-gradient-4" x1="312.43" y1="227.53" x2="547.59" y2="227.53" xlink:href="#linear-gradient"/>
    <radialGradient id="radial-gradient-2" cx="295.22" cy="-47.91" fx="295.22" fy="-47.91" r="197.11" gradientTransform="translate(-.32 -.39)" xlink:href="#radial-gradient"/>
    <linearGradient id="linear-gradient-5" x1="260.68" y1="132.96" x2="538.36" y2="132.96" xlink:href="#linear-gradient"/>
    <linearGradient id="linear-gradient-6" x1="255.76" y1="80.81" x2="475.99" y2="80.81" xlink:href="#linear-gradient"/>
  </defs>
  <g id="todo">
    <g id="star">
      <g>
        <circle class="cls-10" cx="401.59" cy="157.19" r="146"/>
        <g>
          <path class="cls-11" d="M309.8,208.99c17.94-13.77,39.25-22.73,56.83-36.97,19.25-15.59,34.36-37.65,57.68-46.01,16.88-6.05,35.42-3.87,53.31-2.69s37.1.92,52.03-9c3.32-2.21,6.26-5.06,8.7-8.3-6.98-18.65-17.66-35.49-31.15-49.63-36.64-.83-70.67,26.83-102.67,47.89-23.76,15.64-49.43,28.37-76.26,37.81-16.31,5.74-34.34,11.2-44.06,25.51-4.17,6.15-6.44,13.51-11.2,19.22-3.43,4.11-7.64,6.9-12.34,8.71,4.65,17.12,12.33,33,22.44,47.01,5.12-13.11,15.31-24.84,26.67-33.55Z"/>
          <path class="cls-9" d="M510.65,254.24c-30.64,5.13-60.52,13.64-86,30.95-8.87,6.03-17.15,13.08-26.68,17.96,1.2.03,2.4.05,3.61.05,2.94,0,5.85-.1,8.75-.27,3.04-8.29,16-10.18,25.77-9.48,5.05.36,10.11.72,15.16,1.08,23.05-8.34,43.4-22.32,59.38-40.27Z"/>
          <path class="cls-8" d="M414.52,53.91c13.47-1.33,27.39-.01,40.29-4.13,9.08-2.9,17.67-9.76,21.19-18.21-19.62-11.64-42.19-18.82-66.33-20.14-31.93,13.95-61.82,32.32-91.53,50.61-12.33,7.59-28.7,15.11-44.05,24.02-10.7,19.14-17.22,40.94-18.32,64.15,21.49-19.59,44.92-37.24,68.61-54.15,27.32-19.5,56.74-38.85,90.15-42.15Z"/>
          <path class="cls-7" d="M358.95,235.18c-11.69,10.79-21.33,24.04-34.83,32.45-3.56,2.22-7.55,3.98-11.69,5.17,15.62,12.07,33.76,21.04,53.49,25.99,14.13-21.6,33.98-39.03,53.51-56.06,22.69-19.77,47.1-40.37,76.85-44.89,15.26-2.31,31.18-.21,46.28-2.58,3.27-12.14,5.03-24.9,5.03-38.08,0-.31,0-.62-.01-.93-39.62,11.49-78.75,24.69-117.23,39.56-25.51,9.86-51.31,20.81-71.4,39.35Z"/>
        </g>
      </g>
      <g id="ring">
        <ellipse class="cls-2" cx="389.64" cy="161.02" rx="398.17" ry="27.53" transform="translate(-31.61 143.79) rotate(-20.11)"/>
        <ellipse class="cls-4" cx="405.61" cy="152.99" rx="393.06" ry="27.53" transform="translate(-27.87 148.79) rotate(-20.11)"/>
        <ellipse class="cls-3" cx="375.52" cy="167.94" rx="398.17" ry="27.53" transform="translate(-34.85 139.35) rotate(-20.11)"/>
      </g>
      <path class="cls-1" d="M264.93,209.16c-6.24-16.25-9.67-33.9-9.67-52.35,0-80.63,65.37-146,146-146,65.83,0,121.49,43.57,139.7,103.45"/>
      <g>
        <path class="cls-5" d="M360.18,176.91c2.19-1.57,4.35-3.19,6.45-4.89,19.25-15.59,34.36-37.65,57.68-46.01,16.88-6.05,35.42-3.87,53.31-2.69s37.1.92,52.03-9c3.32-2.21,6.26-5.06,8.71-8.31-6.98-18.65-17.67-35.49-31.17-49.62-36.64-.82-70.66,26.83-102.66,47.89-23.76,15.64-49.43,28.37-76.26,37.81-16.31,5.74-34.34,11.2-44.06,25.51-4.17,6.15-6.44,13.51-11.2,19.22-3.43,4.11-7.64,6.9-12.34,8.71,1.3,4.77,2.82,9.45,4.57,14.01l94.92-32.63Z"/>
        <path class="cls-6" d="M414.52,53.91c13.47-1.33,27.39-.01,40.29-4.13,9.08-2.9,17.67-9.76,21.19-18.22-19.62-11.64-42.19-18.82-66.33-20.14-31.93,13.95-61.82,32.32-91.53,50.6-12.33,7.59-28.7,15.11-44.05,24.02-10.7,19.14-17.22,40.94-18.32,64.15,21.49-19.59,44.92-37.24,68.61-54.15,27.32-19.5,56.74-38.85,90.15-42.15Z"/>
      </g>
    </g>
  </g>
</svg>