<svg width="1848" height="1252" viewBox="0 0 1848 1252" fill="none" xmlns="http://www.w3.org/2000/svg">
<path d="M117 468L122.992 466.828L124 461L125.336 466.828L131 468L125.336 469.172L124 475L122.992 469.172L117 468Z" fill="#CECECE" fill-opacity="0.33"/>
<path d="M141 843L146.992 841.828L148 836L149.336 841.828L155 843L149.336 844.172L148 850L146.992 844.172L141 843Z" fill="#CECECE" fill-opacity="0.33"/>
<path d="M22 344L27.9918 342.828L29 337L30.3364 342.828L36 344L30.3364 345.172L29 351L27.9918 345.172L22 344Z" fill="#CECECE" fill-opacity="0.33"/>
<path d="M235 538L240.992 536.828L242 531L243.336 536.828L249 538L243.336 539.172L242 545L240.992 539.172L235 538Z" fill="#CECECE" fill-opacity="0.33"/>
<path d="M373 602L378.992 600.828L380 595L381.336 600.828L387 602L381.336 603.172L380 609L378.992 603.172L373 602Z" fill="#CECECE" fill-opacity="0.33"/>
<path d="M604 112L609.992 110.828L611 105L612.336 110.828L618 112L612.336 113.172L611 119L609.992 113.172L604 112Z" fill="#CECECE" fill-opacity="0.33"/>
<path d="M471 31L476.992 29.8277L478 24L479.336 29.8277L485 31L479.336 32.1723L478 38L476.992 32.1723L471 31Z" fill="#CECECE" fill-opacity="0.33"/>
<path d="M402 229L407.992 227.828L409 222L410.336 227.828L416 229L410.336 230.172L409 236L407.992 230.172L402 229Z" fill="#CECECE" fill-opacity="0.33"/>
<path d="M219 13L224.992 11.8277L226 6L227.336 11.8277L233 13L227.336 14.1723L226 20L224.992 14.1723L219 13Z" fill="#CECECE" fill-opacity="0.33"/>
<path d="M74 120L79.9918 118.828L81 113L82.3364 118.828L88 120L82.3364 121.172L81 127L79.9918 121.172L74 120Z" fill="#CECECE" fill-opacity="0.33"/>
<path d="M247 180L252.992 178.828L254 173L255.336 178.828L261 180L255.336 181.172L254 187L252.992 181.172L247 180Z" fill="#CECECE" fill-opacity="0.33"/>
<path d="M447 156L452.992 154.828L454 149L455.336 154.828L461 156L455.336 157.172L454 163L452.992 157.172L447 156Z" fill="#CECECE" fill-opacity="0.33"/>
<path d="M29 591L34.9918 589.828L36 584L37.3364 589.828L43 591L37.3364 592.172L36 598L34.9918 592.172L29 591Z" fill="#CECECE" fill-opacity="0.33"/>
<path d="M916 699L921.992 697.828L923 692L924.336 697.828L930 699L924.336 700.172L923 706L921.992 700.172L916 699Z" fill="#CECECE" fill-opacity="0.33"/>
<path d="M743 420L748.992 418.828L750 413L751.336 418.828L757 420L751.336 421.172L750 427L748.992 421.172L743 420Z" fill="#CECECE" fill-opacity="0.33"/>
<path d="M363 953L368.992 951.828L370 946L371.336 951.828L377 953L371.336 954.172L370 960L368.992 954.172L363 953Z" fill="#CECECE" fill-opacity="0.33"/>
<path d="M967 953L972.992 951.828L974 946L975.336 951.828L981 953L975.336 954.172L974 960L972.992 954.172L967 953Z" fill="#CECECE" fill-opacity="0.33"/>
<path d="M1013 825L1018.99 823.828L1020 818L1021.34 823.828L1027 825L1021.34 826.172L1020 832L1018.99 826.172L1013 825Z" fill="#CECECE" fill-opacity="0.33"/>
<path d="M1421 626L1426.99 624.828L1428 619L1429.34 624.828L1435 626L1429.34 627.172L1428 633L1426.99 627.172L1421 626Z" fill="#CECECE" fill-opacity="0.33"/>
<path d="M1397 444L1402.99 442.828L1404 437L1405.34 442.828L1411 444L1405.34 445.172L1404 451L1402.99 445.172L1397 444Z" fill="#CECECE" fill-opacity="0.33"/>
<path d="M1165 480L1170.99 478.828L1172 473L1173.34 478.828L1179 480L1173.34 481.172L1172 487L1170.99 481.172L1165 480Z" fill="#CECECE" fill-opacity="0.33"/>
<path d="M967 344L972.992 342.828L974 337L975.336 342.828L981 344L975.336 345.172L974 351L972.992 345.172L967 344Z" fill="#CECECE" fill-opacity="0.33"/>
<path d="M989 156L994.992 154.828L996 149L997.336 154.828L1003 156L997.336 157.172L996 163L994.992 157.172L989 156Z" fill="#CECECE" fill-opacity="0.33"/>
<path d="M1246 168L1251.99 166.828L1253 161L1254.34 166.828L1260 168L1254.34 169.172L1253 175L1251.99 169.172L1246 168Z" fill="#CECECE" fill-opacity="0.33"/>
<path d="M1373 19L1378.99 17.8277L1380 12L1381.34 17.8277L1387 19L1381.34 20.1723L1380 26L1378.99 20.1723L1373 19Z" fill="#CECECE" fill-opacity="0.33"/>
<path d="M1421 163L1426.99 161.828L1428 156L1429.34 161.828L1435 163L1429.34 164.172L1428 170L1426.99 164.172L1421 163Z" fill="#CECECE" fill-opacity="0.33"/>
<path d="M1573 117L1578.99 115.828L1580 110L1581.34 115.828L1587 117L1581.34 118.172L1580 124L1578.99 118.172L1573 117Z" fill="#CECECE" fill-opacity="0.33"/>
<path d="M1730 43L1735.99 41.8277L1737 36L1738.34 41.8277L1744 43L1738.34 44.1723L1737 50L1735.99 44.1723L1730 43Z" fill="#CECECE" fill-opacity="0.33"/>
<path d="M1766 212L1771.99 210.828L1773 205L1774.34 210.828L1780 212L1774.34 213.172L1773 219L1771.99 213.172L1766 212Z" fill="#CECECE" fill-opacity="0.33"/>
<path d="M1597 246L1602.99 244.828L1604 239L1605.34 244.828L1611 246L1605.34 247.172L1604 253L1602.99 247.172L1597 246Z" fill="#CECECE" fill-opacity="0.33"/>
<path d="M1421 277L1426.99 275.828L1428 270L1429.34 275.828L1435 277L1429.34 278.172L1428 284L1426.99 278.172L1421 277Z" fill="#CECECE" fill-opacity="0.33"/>
<path d="M1834 129L1839.99 127.828L1841 122L1842.34 127.828L1848 129L1842.34 130.172L1841 136L1839.99 130.172L1834 129Z" fill="#CECECE" fill-opacity="0.33"/>
<path d="M809 62L814.992 60.8277L816 55L817.336 60.8277L823 62L817.336 63.1723L816 69L814.992 63.1723L809 62Z" fill="#CECECE" fill-opacity="0.33"/>
<path d="M1076 38L1081.99 36.8277L1083 31L1084.34 36.8277L1090 38L1084.34 39.1723L1083 45L1081.99 39.1723L1076 38Z" fill="#CECECE" fill-opacity="0.33"/>
<path d="M675 7L680.992 5.82769L682 -2.24016e-07L683.336 5.82769L689 7L683.336 8.17231L682 14L680.992 8.17231L675 7Z" fill="#CECECE" fill-opacity="0.33"/>
<path d="M580 241L585.992 239.828L587 234L588.336 239.828L594 241L588.336 242.172L587 248L585.992 242.172L580 241Z" fill="#CECECE" fill-opacity="0.33"/>
<path d="M1561 356L1566.99 354.828L1568 349L1569.34 354.828L1575 356L1569.34 357.172L1568 363L1566.99 357.172L1561 356Z" fill="#CECECE" fill-opacity="0.33"/>
<path d="M1801 320L1806.99 318.828L1808 313L1809.34 318.828L1815 320L1809.34 321.172L1808 327L1806.99 321.172L1801 320Z" fill="#CECECE" fill-opacity="0.33"/>
<path d="M1573 514L1578.99 512.828L1580 507L1581.34 512.828L1587 514L1581.34 515.172L1580 521L1578.99 515.172L1573 514Z" fill="#CECECE" fill-opacity="0.33"/>
<path d="M1696 567L1701.99 565.828L1703 560L1704.34 565.828L1710 567L1704.34 568.172L1703 574L1701.99 568.172L1696 567Z" fill="#CECECE" fill-opacity="0.33"/>
<path d="M1742 420L1747.99 418.828L1749 413L1750.34 418.828L1756 420L1750.34 421.172L1749 427L1747.99 421.172L1742 420Z" fill="#CECECE" fill-opacity="0.33"/>
<path d="M1573 662L1578.99 660.828L1580 655L1581.34 660.828L1587 662L1581.34 663.172L1580 669L1578.99 663.172L1573 662Z" fill="#CECECE" fill-opacity="0.33"/>
<path d="M1766 755L1771.99 753.828L1773 748L1774.34 753.828L1780 755L1774.34 756.172L1773 762L1771.99 756.172L1766 755Z" fill="#CECECE" fill-opacity="0.33"/>
<path d="M1766 914L1771.99 912.828L1773 907L1774.34 912.828L1780 914L1774.34 915.172L1773 921L1771.99 915.172L1766 914Z" fill="#CECECE" fill-opacity="0.33"/>
<path d="M1813 1177L1818.99 1175.83L1820 1170L1821.34 1175.83L1827 1177L1821.34 1178.17L1820 1184L1818.99 1178.17L1813 1177Z" fill="#CECECE" fill-opacity="0.33"/>
<path d="M1650 1221L1655.99 1219.83L1657 1214L1658.34 1219.83L1664 1221L1658.34 1222.17L1657 1228L1655.99 1222.17L1650 1221Z" fill="#CECECE" fill-opacity="0.33"/>
<path d="M1409 825L1414.99 823.828L1416 818L1417.34 823.828L1423 825L1417.34 826.172L1416 832L1414.99 826.172L1409 825Z" fill="#CECECE" fill-opacity="0.33"/>
<path d="M1348 1042L1353.99 1040.83L1355 1035L1356.34 1040.83L1362 1042L1356.34 1043.17L1355 1049L1353.99 1043.17L1348 1042Z" fill="#CECECE" fill-opacity="0.33"/>
<path d="M1452 1221L1457.99 1219.83L1459 1214L1460.34 1219.83L1466 1221L1460.34 1222.17L1459 1228L1457.99 1222.17L1452 1221Z" fill="#CECECE" fill-opacity="0.33"/>
<path d="M1626 837L1631.99 835.828L1633 830L1634.34 835.828L1640 837L1634.34 838.172L1633 844L1631.99 838.172L1626 837Z" fill="#CECECE" fill-opacity="0.33"/>
<path d="M1561 989L1566.99 987.828L1568 982L1569.34 987.828L1575 989L1569.34 990.172L1568 996L1566.99 990.172L1561 989Z" fill="#CECECE" fill-opacity="0.33"/>
<path d="M1561 1089L1566.99 1087.83L1568 1082L1569.34 1087.83L1575 1089L1569.34 1090.17L1568 1096L1566.99 1090.17L1561 1089Z" fill="#CECECE" fill-opacity="0.33"/>
<path d="M1730 1077L1735.99 1075.83L1737 1070L1738.34 1075.83L1744 1077L1738.34 1078.17L1737 1084L1735.99 1078.17L1730 1077Z" fill="#CECECE" fill-opacity="0.33"/>
<path d="M1257 735L1262.99 733.828L1264 728L1265.34 733.828L1271 735L1265.34 736.172L1264 742L1262.99 736.172L1257 735Z" fill="#CECECE" fill-opacity="0.33"/>
<path d="M1250 344L1255.99 342.828L1257 337L1258.34 342.828L1264 344L1258.34 345.172L1257 351L1255.99 345.172L1250 344Z" fill="#CECECE" fill-opacity="0.33"/>
<path d="M1258 868L1263.99 866.828L1265 861L1266.34 866.828L1272 868L1266.34 869.172L1265 875L1263.99 869.172L1258 868Z" fill="#CECECE" fill-opacity="0.33"/>
<path d="M1160 1001L1165.99 999.828L1167 994L1168.34 999.828L1174 1001L1168.34 1002.17L1167 1008L1165.99 1002.17L1160 1001Z" fill="#CECECE" fill-opacity="0.33"/>
<path d="M1054 1095L1059.99 1093.83L1061 1088L1062.34 1093.83L1068 1095L1062.34 1096.17L1061 1102L1059.99 1096.17L1054 1095Z" fill="#CECECE" fill-opacity="0.33"/>
<path d="M989 1233L994.992 1231.83L996 1226L997.336 1231.83L1003 1233L997.336 1234.17L996 1240L994.992 1234.17L989 1233Z" fill="#CECECE" fill-opacity="0.33"/>
<path d="M845 1049L850.992 1047.83L852 1042L853.336 1047.83L859 1049L853.336 1050.17L852 1056L850.992 1050.17L845 1049Z" fill="#CECECE" fill-opacity="0.33"/>
<path d="M845 1165L850.992 1163.83L852 1158L853.336 1163.83L859 1165L853.336 1166.17L852 1172L850.992 1166.17L845 1165Z" fill="#CECECE" fill-opacity="0.33"/>
<path d="M693 1245L698.992 1243.83L700 1238L701.336 1243.83L707 1245L701.336 1246.17L700 1252L698.992 1246.17L693 1245Z" fill="#CECECE" fill-opacity="0.33"/>
<path d="M693 1030L698.992 1028.83L700 1023L701.336 1028.83L707 1030L701.336 1031.17L700 1037L698.992 1031.17L693 1030Z" fill="#CECECE" fill-opacity="0.33"/>
<path d="M572 1066L577.992 1064.83L579 1059L580.336 1064.83L586 1066L580.336 1067.17L579 1073L577.992 1067.17L572 1066Z" fill="#CECECE" fill-opacity="0.33"/>
<path d="M482 1197L487.992 1195.83L489 1190L490.336 1195.83L496 1197L490.336 1198.17L489 1204L487.992 1198.17L482 1197Z" fill="#CECECE" fill-opacity="0.33"/>
<path d="M411 1042L416.992 1040.83L418 1035L419.336 1040.83L425 1042L419.336 1043.17L418 1049L416.992 1043.17L411 1042Z" fill="#CECECE" fill-opacity="0.33"/>
<path d="M349 1233L354.992 1231.83L356 1226L357.336 1231.83L363 1233L357.336 1234.17L356 1240L354.992 1234.17L349 1233Z" fill="#CECECE" fill-opacity="0.33"/>
<path d="M295 1061L300.992 1059.83L302 1054L303.336 1059.83L309 1061L303.336 1062.17L302 1068L300.992 1062.17L295 1061Z" fill="#CECECE" fill-opacity="0.33"/>
<path d="M223 1141L228.992 1139.83L230 1134L231.336 1139.83L237 1141L231.336 1142.17L230 1148L228.992 1142.17L223 1141Z" fill="#CECECE" fill-opacity="0.33"/>
<path d="M223 965L228.992 963.828L230 958L231.336 963.828L237 965L231.336 966.172L230 972L228.992 966.172L223 965Z" fill="#CECECE" fill-opacity="0.33"/>
<path d="M93 971L98.9918 969.828L100 964L101.336 969.828L107 971L101.336 972.172L100 978L98.9918 972.172L93 971Z" fill="#CECECE" fill-opacity="0.33"/>
<path d="M93 1090L98.9918 1088.83L100 1083L101.336 1088.83L107 1090L101.336 1091.17L100 1097L98.9918 1091.17L93 1090Z" fill="#CECECE" fill-opacity="0.33"/>
<path d="M0 1153L5.9918 1151.83L7 1146L8.33642 1151.83L14 1153L8.33642 1154.17L7 1160L5.9918 1154.17L0 1153Z" fill="#CECECE" fill-opacity="0.33"/>
<path d="M112 1221L117.992 1219.83L119 1214L120.336 1219.83L126 1221L120.336 1222.17L119 1228L117.992 1222.17L112 1221Z" fill="#CECECE" fill-opacity="0.33"/>
<path d="M1226 1177L1231.99 1175.83L1233 1170L1234.34 1175.83L1240 1177L1234.34 1178.17L1233 1184L1231.99 1178.17L1226 1177Z" fill="#CECECE" fill-opacity="0.33"/>
<path d="M894 514L899.992 512.828L901 507L902.336 512.828L908 514L902.336 515.172L901 521L899.992 515.172L894 514Z" fill="#CECECE" fill-opacity="0.33"/>
<path d="M568 550L573.992 548.828L575 543L576.336 548.828L582 550L576.336 551.172L575 557L573.992 551.172L568 550Z" fill="#CECECE" fill-opacity="0.33"/>
<path d="M779 767L784.992 765.828L786 760L787.336 765.828L793 767L787.336 768.172L786 774L784.992 768.172L779 767Z" fill="#CECECE" fill-opacity="0.33"/>
<path d="M572 902L577.992 900.828L579 895L580.336 900.828L586 902L580.336 903.172L579 909L577.992 903.172L572 902Z" fill="#CECECE" fill-opacity="0.33"/>
<path d="M833 902L838.992 900.828L840 895L841.336 900.828L847 902L841.336 903.172L840 909L838.992 903.172L833 902Z" fill="#CECECE" fill-opacity="0.33"/>
<path d="M743 591L748.992 589.828L750 584L751.336 589.828L757 591L751.336 592.172L750 598L748.992 592.172L743 591Z" fill="#CECECE" fill-opacity="0.33"/>
<path d="M423 650L428.992 648.828L430 643L431.336 648.828L437 650L431.336 651.172L430 657L428.992 651.172L423 650Z" fill="#CECECE" fill-opacity="0.33"/>
<path d="M560 699L565.992 697.828L567 692L568.336 697.828L574 699L568.336 700.172L567 706L565.992 700.172L560 699Z" fill="#CECECE" fill-opacity="0.33"/>
<path d="M271 767L276.992 765.828L278 760L279.336 765.828L285 767L279.336 768.172L278 774L276.992 768.172L271 767Z" fill="#CECECE" fill-opacity="0.33"/>
<path d="M435 837L440.992 835.828L442 830L443.336 835.828L449 837L443.336 838.172L442 844L440.992 838.172L435 837Z" fill="#CECECE" fill-opacity="0.33"/>
<path d="M1117 662L1122.99 660.828L1124 655L1125.34 660.828L1131 662L1125.34 663.172L1124 669L1122.99 663.172L1117 662Z" fill="#CECECE" fill-opacity="0.33"/>
<path d="M195 674L200.992 672.828L202 667L203.336 672.828L209 674L203.336 675.172L202 681L200.992 675.172L195 674Z" fill="#CECECE" fill-opacity="0.33"/>
<path d="M34 890L39.9918 888.828L41 883L42.3364 888.828L48 890L42.3364 891.172L41 897L39.9918 891.172L34 890Z" fill="#CECECE" fill-opacity="0.33"/>
<path d="M373 456L378.992 454.828L380 449L381.336 454.828L387 456L381.336 457.172L380 463L378.992 457.172L373 456Z" fill="#CECECE" fill-opacity="0.33"/>
<path d="M584 392L589.992 390.828L591 385L592.336 390.828L598 392L592.336 393.172L591 399L589.992 393.172L584 392Z" fill="#CECECE" fill-opacity="0.33"/>
<path d="M755 289L760.992 287.828L762 282L763.336 287.828L769 289L763.336 290.172L762 296L760.992 290.172L755 289Z" fill="#CECECE" fill-opacity="0.33"/>
<path d="M322 368L327.992 366.828L329 361L330.336 366.828L336 368L330.336 369.172L329 375L327.992 369.172L322 368Z" fill="#CECECE" fill-opacity="0.33"/>
<path d="M129 332L134.992 330.828L136 325L137.336 330.828L143 332L137.336 333.172L136 339L134.992 333.172L129 332Z" fill="#CECECE" fill-opacity="0.33"/>
</svg>
