<svg width="1920" height="1320" viewBox="0 0 1920 1320" fill="none" xmlns="http://www.w3.org/2000/svg">
<mask id="mask0_638_1459" style="mask-type:alpha" maskUnits="userSpaceOnUse" x="0" y="0" width="1920" height="1320">
<rect width="1920" height="1320" fill="url(#paint0_linear_638_1459)"/>
</mask>
<g mask="url(#mask0_638_1459)">
<ellipse cx="221" cy="743.5" rx="272" ry="280.5" fill="url(#paint1_radial_638_1459)" fill-opacity="0.15"/>
<ellipse cx="512" cy="1014.5" rx="272" ry="280.5" fill="url(#paint2_radial_638_1459)" fill-opacity="0.15"/>
<ellipse cx="321" cy="964.5" rx="272" ry="280.5" fill="url(#paint3_radial_638_1459)" fill-opacity="0.15"/>
<ellipse cx="1775" cy="218.5" rx="272" ry="280.5" fill="url(#paint4_radial_638_1459)" fill-opacity="0.15"/>
<ellipse cx="1503" cy="315.5" rx="272" ry="280.5" fill="url(#paint5_radial_638_1459)" fill-opacity="0.15"/>
<ellipse cx="1600" cy="115.5" rx="272" ry="280.5" fill="url(#paint6_radial_638_1459)" fill-opacity="0.15"/>
<ellipse cx="903" cy="282.5" rx="272" ry="280.5" fill="url(#paint7_radial_638_1459)" fill-opacity="0.15"/>
<ellipse cx="631" cy="379.5" rx="272" ry="280.5" fill="url(#paint8_radial_638_1459)" fill-opacity="0.15"/>
<ellipse cx="728" cy="179.5" rx="272" ry="280.5" fill="url(#paint9_radial_638_1459)" fill-opacity="0.15"/>
<ellipse cx="1412" cy="922.5" rx="272" ry="280.5" fill="url(#paint10_radial_638_1459)" fill-opacity="0.15"/>
<ellipse cx="1140" cy="1019.5" rx="272" ry="280.5" fill="url(#paint11_radial_638_1459)" fill-opacity="0.15"/>
<ellipse cx="1237" cy="819.5" rx="272" ry="280.5" fill="url(#paint12_radial_638_1459)" fill-opacity="0.15"/>
<path d="M496 252L501.992 250.828L503 245L504.336 250.828L510 252L504.336 253.172L503 259L501.992 253.172L496 252Z" fill="#F3F3F3"/>
<path d="M420 368L425.992 366.828L427 361L428.336 366.828L434 368L428.336 369.172L427 375L425.992 369.172L420 368Z" fill="#F3F3F3"/>
<path d="M610 430L615.992 428.828L617 423L618.336 428.828L624 430L618.336 431.172L617 437L615.992 431.172L610 430Z" fill="#F3F3F3"/>
<path d="M1604 1225L1609.99 1223.83L1611 1218L1612.34 1223.83L1618 1225L1612.34 1226.17L1611 1232L1609.99 1226.17L1604 1225Z" fill="#F3F3F3"/>
<path d="M1759 1173L1764.99 1171.83L1766 1166L1767.34 1171.83L1773 1173L1767.34 1174.17L1766 1180L1764.99 1174.17L1759 1173Z" fill="#F3F3F3"/>
<path d="M485 545L490.992 543.828L492 538L493.336 543.828L499 545L493.336 546.172L492 552L490.992 546.172L485 545Z" fill="#F3F3F3"/>
<path d="M798 641L803.992 639.828L805 634L806.336 639.828L812 641L806.336 642.172L805 648L803.992 642.172L798 641Z" fill="#F3F3F3"/>
<path d="M185 660L190.992 658.828L192 653L193.336 658.828L199 660L193.336 661.172L192 667L190.992 661.172L185 660Z" fill="#F3F3F3"/>
<path d="M31 731L36.9918 729.828L38 724L39.3364 729.828L45 731L39.3364 732.172L38 738L36.9918 732.172L31 731Z" fill="#F3F3F3"/>
<path d="M406 688L411.992 686.828L413 681L414.336 686.828L420 688L414.336 689.172L413 695L411.992 689.172L406 688Z" fill="#F3F3F3"/>
<path d="M358 855L363.992 853.828L365 848L366.336 853.828L372 855L366.336 856.172L365 862L363.992 856.172L358 855Z" fill="#F3F3F3"/>
<path d="M589 862L594.992 860.828L596 855L597.336 860.828L603 862L597.336 863.172L596 869L594.992 863.172L589 862Z" fill="#F3F3F3"/>
<path d="M587 700L592.992 698.828L594 693L595.336 698.828L601 700L595.336 701.172L594 707L592.992 701.172L587 700Z" fill="#F3F3F3"/>
<path d="M736 489L741.992 487.828L743 482L744.336 487.828L750 489L744.336 490.172L743 496L741.992 490.172L736 489Z" fill="#F3F3F3"/>
<path d="M639 1123L644.992 1121.83L646 1116L647.336 1121.83L653 1123L647.336 1124.17L646 1130L644.992 1124.17L639 1123Z" fill="#F3F3F3"/>
<path d="M565 1260L570.992 1258.83L572 1253L573.336 1258.83L579 1260L573.336 1261.17L572 1267L570.992 1261.17L565 1260Z" fill="#F3F3F3"/>
<path d="M392 1239L397.992 1237.83L399 1232L400.336 1237.83L406 1239L400.336 1240.17L399 1246L397.992 1240.17L392 1239Z" fill="#F3F3F3"/>
<path d="M214 928L219.992 926.828L221 921L222.336 926.828L228 928L222.336 929.172L221 935L219.992 929.172L214 928Z" fill="#F3F3F3"/>
<path d="M65 818L70.9918 816.828L72 811L73.3364 816.828L79 818L73.3364 819.172L72 825L70.9918 819.172L65 818Z" fill="#F3F3F3"/>
<path d="M214 928L219.992 926.828L221 921L222.336 926.828L228 928L222.336 929.172L221 935L219.992 929.172L214 928Z" fill="#F3F3F3"/>
<path d="M100 1186L105.992 1184.83L107 1179L108.336 1184.83L114 1186L108.336 1187.17L107 1193L105.992 1187.17L100 1186Z" fill="#F3F3F3"/>
<path d="M26 1281L31.9918 1279.83L33 1274L34.3364 1279.83L40 1281L34.3364 1282.17L33 1288L31.9918 1282.17L26 1281Z" fill="#F3F3F3"/>
<path d="M450 1025L455.992 1023.83L457 1018L458.336 1023.83L464 1025L458.336 1026.17L457 1032L455.992 1026.17L450 1025Z" fill="#F3F3F3"/>
<path d="M248 1093L253.992 1091.83L255 1086L256.336 1091.83L262 1093L256.336 1094.17L255 1100L253.992 1094.17L248 1093Z" fill="#F3F3F3"/>
<path d="M224 1264L229.992 1262.83L231 1257L232.336 1262.83L238 1264L232.336 1265.17L231 1271L229.992 1265.17L224 1264Z" fill="#F3F3F3"/>
<path d="M82 995L87.9918 993.828L89 988L90.3364 993.828L96 995L90.3364 996.172L89 1002L87.9918 996.172L82 995Z" fill="#F3F3F3"/>
<path d="M26 1103L31.9918 1101.83L33 1096L34.3364 1101.83L40 1103L34.3364 1104.17L33 1110L31.9918 1104.17L26 1103Z" fill="#F3F3F3"/>
<path d="M912 382L917.992 380.828L919 375L920.336 380.828L926 382L920.336 383.172L919 389L917.992 383.172L912 382Z" fill="#F3F3F3"/>
<path d="M953 553L958.992 551.828L960 546L961.336 551.828L967 553L961.336 554.172L960 560L958.992 554.172L953 553Z" fill="#F3F3F3"/>
<path d="M1071 210L1076.99 208.828L1078 203L1079.34 208.828L1085 210L1079.34 211.172L1078 217L1076.99 211.172L1071 210Z" fill="#F3F3F3"/>
<path d="M919 264L924.992 262.828L926 257L927.336 262.828L933 264L927.336 265.172L926 271L924.992 265.172L919 264Z" fill="#F3F3F3"/>
<path d="M665 139L670.992 137.828L672 132L673.336 137.828L679 139L673.336 140.172L672 146L670.992 140.172L665 139Z" fill="#F3F3F3"/>
<path d="M443 93L448.992 91.8277L450 86L451.336 91.8277L457 93L451.336 94.1723L450 100L448.992 94.1723L443 93Z" fill="#F3F3F3"/>
<path d="M1304 173L1309.99 171.828L1311 166L1312.34 171.828L1318 173L1312.34 174.172L1311 180L1309.99 174.172L1304 173Z" fill="#F3F3F3"/>
<path d="M1136 326L1141.99 324.828L1143 319L1144.34 324.828L1150 326L1144.34 327.172L1143 333L1141.99 327.172L1136 326Z" fill="#F3F3F3"/>
<path d="M1625 465L1630.99 463.828L1632 458L1633.34 463.828L1639 465L1633.34 466.172L1632 472L1630.99 466.172L1625 465Z" fill="#F3F3F3"/>
<path d="M1423 506L1428.99 504.828L1430 499L1431.34 504.828L1437 506L1431.34 507.172L1430 513L1428.99 507.172L1423 506Z" fill="#F3F3F3"/>
<path d="M1622 326L1627.99 324.828L1629 319L1630.34 324.828L1636 326L1630.34 327.172L1629 333L1627.99 327.172L1622 326Z" fill="#F3F3F3"/>
<path d="M1742 375L1747.99 373.828L1749 368L1750.34 373.828L1756 375L1750.34 376.172L1749 382L1747.99 376.172L1742 375Z" fill="#F3F3F3"/>
<path d="M1742 756L1747.99 754.828L1749 749L1750.34 754.828L1756 756L1750.34 757.172L1749 763L1747.99 757.172L1742 756Z" fill="#F3F3F3"/>
<path d="M1657 892L1662.99 890.828L1664 885L1665.34 890.828L1671 892L1665.34 893.172L1664 899L1662.99 893.172L1657 892Z" fill="#F3F3F3"/>
<path d="M1838 932L1843.99 930.828L1845 925L1846.34 930.828L1852 932L1846.34 933.172L1845 939L1843.99 933.172L1838 932Z" fill="#F3F3F3"/>
<path d="M1891 784L1896.99 782.828L1898 777L1899.34 782.828L1905 784L1899.34 785.172L1898 791L1896.99 785.172L1891 784Z" fill="#F3F3F3"/>
<path d="M1849 594L1854.99 592.828L1856 587L1857.34 592.828L1863 594L1857.34 595.172L1856 601L1854.99 595.172L1849 594Z" fill="#F3F3F3"/>
<path d="M1742 1045L1747.99 1043.83L1749 1038L1750.34 1043.83L1756 1045L1750.34 1046.17L1749 1052L1747.99 1046.17L1742 1045Z" fill="#F3F3F3"/>
<path d="M1405 928L1410.99 926.828L1412 921L1413.34 926.828L1419 928L1413.34 929.172L1412 935L1410.99 929.172L1405 928Z" fill="#F3F3F3"/>
<path d="M1371 1118L1376.99 1116.83L1378 1111L1379.34 1116.83L1385 1118L1379.34 1119.17L1378 1125L1376.99 1119.17L1371 1118Z" fill="#F3F3F3"/>
<path d="M1322 1276L1327.99 1274.83L1329 1269L1330.34 1274.83L1336 1276L1330.34 1277.17L1329 1283L1327.99 1277.17L1322 1276Z" fill="#F3F3F3"/>
<path d="M1470 224L1475.99 222.828L1477 217L1478.34 222.828L1484 224L1478.34 225.172L1477 231L1475.99 225.172L1470 224Z" fill="#F3F3F3"/>
<path d="M1201 416L1206.99 414.828L1208 409L1209.34 414.828L1215 416L1209.34 417.172L1208 423L1206.99 417.172L1201 416Z" fill="#F3F3F3"/>
<path d="M1201 550L1206.99 548.828L1208 543L1209.34 548.828L1215 550L1209.34 551.172L1208 557L1206.99 551.172L1201 550Z" fill="#F3F3F3"/>
<path d="M1728 271L1733.99 269.828L1735 264L1736.34 269.828L1742 271L1736.34 272.172L1735 278L1733.99 272.172L1728 271Z" fill="#F3F3F3"/>
<path d="M1841 382L1846.99 380.828L1848 375L1849.34 380.828L1855 382L1849.34 383.172L1848 389L1846.99 383.172L1841 382Z" fill="#F3F3F3"/>
<path d="M1767 467L1772.99 465.828L1774 460L1775.34 465.828L1781 467L1775.34 468.172L1774 474L1772.99 468.172L1767 467Z" fill="#F3F3F3"/>
<path d="M1707 612L1712.99 610.828L1714 605L1715.34 610.828L1721 612L1715.34 613.172L1714 619L1712.99 613.172L1707 612Z" fill="#F3F3F3"/>
<path d="M1428 354L1433.99 352.828L1435 347L1436.34 352.828L1442 354L1436.34 355.172L1435 361L1433.99 355.172L1428 354Z" fill="#F3F3F3"/>
<path d="M1468 653L1473.99 651.828L1475 646L1476.34 651.828L1482 653L1476.34 654.172L1475 660L1473.99 654.172L1468 653Z" fill="#F3F3F3"/>
<path d="M1459 817L1464.99 815.828L1466 810L1467.34 815.828L1473 817L1467.34 818.172L1466 824L1464.99 818.172L1459 817Z" fill="#F3F3F3"/>
<path d="M1219 667L1224.99 665.828L1226 660L1227.34 665.828L1233 667L1227.34 668.172L1226 674L1224.99 668.172L1219 667Z" fill="#F3F3F3"/>
<path d="M1046 823L1051.99 821.828L1053 816L1054.34 821.828L1060 823L1054.34 824.172L1053 830L1051.99 824.172L1046 823Z" fill="#F3F3F3"/>
<path d="M909 766L914.992 764.828L916 759L917.336 764.828L923 766L917.336 767.172L916 773L914.992 767.172L909 766Z" fill="#F3F3F3"/>
<path d="M1070 983L1075.99 981.828L1077 976L1078.34 981.828L1084 983L1078.34 984.172L1077 990L1075.99 984.172L1070 983Z" fill="#F3F3F3"/>
<path d="M809 942L814.992 940.828L816 935L817.336 940.828L823 942L817.336 943.172L816 949L814.992 943.172L809 942Z" fill="#F3F3F3"/>
<path d="M1253 910L1258.99 908.828L1260 903L1261.34 908.828L1267 910L1261.34 911.172L1260 917L1258.99 911.172L1253 910Z" fill="#F3F3F3"/>
<path d="M1229 1049L1234.99 1047.83L1236 1042L1237.34 1047.83L1243 1049L1237.34 1050.17L1236 1056L1234.99 1050.17L1229 1049Z" fill="#F3F3F3"/>
<path d="M892 1121L897.992 1119.83L899 1114L900.336 1119.83L906 1121L900.336 1122.17L899 1128L897.992 1122.17L892 1121Z" fill="#F3F3F3"/>
<path d="M740 1247L745.992 1245.83L747 1240L748.336 1245.83L754 1247L748.336 1248.17L747 1254L745.992 1248.17L740 1247Z" fill="#F3F3F3"/>
<path d="M1140 1187L1145.99 1185.83L1147 1180L1148.34 1185.83L1154 1187L1148.34 1188.17L1147 1194L1145.99 1188.17L1140 1187Z" fill="#F3F3F3"/>
<path d="M961 1283L966.992 1281.83L968 1276L969.336 1281.83L975 1283L969.336 1284.17L968 1290L966.992 1284.17L961 1283Z" fill="#F3F3F3"/>
<path d="M1543 1065L1548.99 1063.83L1550 1058L1551.34 1063.83L1557 1065L1551.34 1066.17L1550 1072L1548.99 1066.17L1543 1065Z" fill="#F3F3F3"/>
<path d="M1848 182L1853.99 180.828L1855 175L1856.34 180.828L1862 182L1856.34 183.172L1855 189L1853.99 183.172L1848 182Z" fill="#F3F3F3"/>
<path d="M1847 80L1852.99 78.8277L1854 73L1855.34 78.8277L1861 80L1855.34 81.1723L1854 87L1852.99 81.1723L1847 80Z" fill="#F3F3F3"/>
<path d="M1716 48L1721.99 46.8277L1723 41L1724.34 46.8277L1730 48L1724.34 49.1723L1723 55L1721.99 49.1723L1716 48Z" fill="#F3F3F3"/>
<path d="M1414 44L1419.99 42.8277L1421 37L1422.34 42.8277L1428 44L1422.34 45.1723L1421 51L1419.99 45.1723L1414 44Z" fill="#F3F3F3"/>
<path d="M1134 59L1139.99 57.8277L1141 52L1142.34 57.8277L1148 59L1142.34 60.1723L1141 66L1139.99 60.1723L1134 59Z" fill="#F3F3F3"/>
<path d="M1618 132L1623.99 130.828L1625 125L1626.34 130.828L1632 132L1626.34 133.172L1625 139L1623.99 133.172L1618 132Z" fill="#F3F3F3"/>
<path d="M940 85L945.992 83.8277L947 78L948.336 83.8277L954 85L948.336 86.1723L947 92L945.992 86.1723L940 85Z" fill="#F3F3F3"/>
<path d="M772 855L777.992 853.828L779 848L780.336 853.828L786 855L780.336 856.172L779 862L777.992 856.172L772 855Z" fill="#F3F3F3"/>
<path d="M358 552L363.992 550.828L365 545L366.336 550.828L372 552L366.336 553.172L365 559L363.992 553.172L358 552Z" fill="#F3F3F3"/>
<path d="M358 552L363.992 550.828L365 545L366.336 550.828L372 552L366.336 553.172L365 559L363.992 553.172L358 552Z" fill="#F3F3F3"/>
<path d="M58 167.725L63.9918 166.365L65 159.605L66.3364 166.365L72 167.725L66.3364 169.085L65 175.846L63.9918 169.085L58 167.725Z" fill="#F3F3F3"/>
<path d="M20 305.12L25.9918 303.76L27 297L28.3364 303.76L34 305.12L28.3364 306.48L27 313.241L25.9918 306.48L20 305.12Z" fill="#F3F3F3"/>
<path d="M704 245L709.992 243.828L711 238L712.336 243.828L718 245L712.336 246.172L711 252L709.992 246.172L704 245Z" fill="#F3F3F3"/>
<path d="M257 375L262.992 373.828L264 368L265.336 373.828L271 375L265.336 376.172L264 382L262.992 376.172L257 375Z" fill="#F3F3F3"/>
<path d="M257 375L262.992 373.828L264 368L265.336 373.828L271 375L265.336 376.172L264 382L262.992 376.172L257 375Z" fill="#F3F3F3"/>
<path d="M257 375L262.992 373.828L264 368L265.336 373.828L271 375L265.336 376.172L264 382L262.992 376.172L257 375Z" fill="#F3F3F3"/>
<path d="M257 375L262.992 373.828L264 368L265.336 373.828L271 375L265.336 376.172L264 382L262.992 376.172L257 375Z" fill="#F3F3F3"/>
<path d="M257 375L262.992 373.828L264 368L265.336 373.828L271 375L265.336 376.172L264 382L262.992 376.172L257 375Z" fill="#F3F3F3"/>
<path d="M257 375L262.992 373.828L264 368L265.336 373.828L271 375L265.336 376.172L264 382L262.992 376.172L257 375Z" fill="#F3F3F3"/>
<path d="M257 375L262.992 373.828L264 368L265.336 373.828L271 375L265.336 376.172L264 382L262.992 376.172L257 375Z" fill="#F3F3F3"/>
<path d="M257 375L262.992 373.828L264 368L265.336 373.828L271 375L265.336 376.172L264 382L262.992 376.172L257 375Z" fill="#F3F3F3"/>
<path d="M257 375L262.992 373.828L264 368L265.336 373.828L271 375L265.336 376.172L264 382L262.992 376.172L257 375Z" fill="#F3F3F3"/>
<path d="M257 375L262.992 373.828L264 368L265.336 373.828L271 375L265.336 376.172L264 382L262.992 376.172L257 375Z" fill="#F3F3F3"/>
<path d="M257 375L262.992 373.828L264 368L265.336 373.828L271 375L265.336 376.172L264 382L262.992 376.172L257 375Z" fill="#F3F3F3"/>
<path d="M704 245L709.992 243.828L711 238L712.336 243.828L718 245L712.336 246.172L711 252L709.992 246.172L704 245Z" fill="#F3F3F3"/>
<path d="M406 202L411.992 200.828L413 195L414.336 200.828L420 202L414.336 203.172L413 209L411.992 203.172L406 202Z" fill="#F3F3F3"/>
<path d="M303 100L308.992 98.8277L310 93L311.336 98.8277L317 100L311.336 101.172L310 107L308.992 101.172L303 100Z" fill="#F3F3F3"/>
<path d="M156 43L161.992 41.8277L163 36L164.336 41.8277L170 43L164.336 44.1723L163 50L161.992 44.1723L156 43Z" fill="#F3F3F3"/>
<path d="M227 183L232.992 181.828L234 176L235.336 181.828L241 183L235.336 184.172L234 190L232.992 184.172L227 183Z" fill="#F3F3F3"/>
<path d="M13 24L18.9918 22.8277L20 17L21.3364 22.8277L27 24L21.3364 25.1723L20 31L18.9918 25.1723L13 24Z" fill="#F3F3F3"/>
<path d="M76 356L81.9918 354.828L83 349L84.3364 354.828L90 356L84.3364 357.172L83 363L81.9918 357.172L76 356Z" fill="#F3F3F3"/>
<path d="M40 457L45.9918 455.828L47 450L48.3364 455.828L54 457L48.3364 458.172L47 464L45.9918 458.172L40 457Z" fill="#F3F3F3"/>
<path d="M102 510L107.992 508.828L109 503L110.336 508.828L116 510L110.336 511.172L109 517L107.992 511.172L102 510Z" fill="#F3F3F3"/>
<path d="M204 495L209.992 493.828L211 488L212.336 493.828L218 495L212.336 496.172L211 502L209.992 496.172L204 495Z" fill="#F3F3F3"/>
<path d="M55 627L60.9918 625.828L62 620L63.3364 625.828L69 627L63.3364 628.172L62 634L60.9918 628.172L55 627Z" fill="#F3F3F3"/>
<path d="M172 781L177.992 779.828L179 774L180.336 779.828L186 781L180.336 782.172L179 788L177.992 782.172L172 781Z" fill="#F3F3F3"/>
</g>
<defs>
<linearGradient id="paint0_linear_638_1459" x1="1764" y1="1198.63" x2="63.8782" y2="79.9721" gradientUnits="userSpaceOnUse">
<stop stop-color="#020616"/>
<stop offset="1" stop-color="#1133AC"/>
</linearGradient>
<radialGradient id="paint1_radial_638_1459" cx="0" cy="0" r="1" gradientUnits="userSpaceOnUse" gradientTransform="translate(192.5 814.5) rotate(77.9261) scale(201.925 189.713)">
<stop stop-color="#DD10C9"/>
<stop offset="0.965" stop-color="#E765DA" stop-opacity="0.08"/>
</radialGradient>
<radialGradient id="paint2_radial_638_1459" cx="0" cy="0" r="1" gradientUnits="userSpaceOnUse" gradientTransform="translate(483.5 1085.5) rotate(77.9261) scale(201.925 189.713)">
<stop stop-color="#24AE5E"/>
<stop offset="0.965" stop-color="#269E59" stop-opacity="0"/>
</radialGradient>
<radialGradient id="paint3_radial_638_1459" cx="0" cy="0" r="1" gradientUnits="userSpaceOnUse" gradientTransform="translate(292.5 1035.5) rotate(77.9261) scale(201.925 189.713)">
<stop stop-color="#E1D780"/>
<stop offset="0.965" stop-color="#DECD2F" stop-opacity="0"/>
</radialGradient>
<radialGradient id="paint4_radial_638_1459" cx="0" cy="0" r="1" gradientUnits="userSpaceOnUse" gradientTransform="translate(1746.5 289.5) rotate(77.9261) scale(201.925 189.713)">
<stop stop-color="#DD10C9"/>
<stop offset="0.965" stop-color="#E765DA" stop-opacity="0.08"/>
</radialGradient>
<radialGradient id="paint5_radial_638_1459" cx="0" cy="0" r="1" gradientUnits="userSpaceOnUse" gradientTransform="translate(1474.5 386.5) rotate(77.9261) scale(201.925 189.713)">
<stop stop-color="#24AE5E"/>
<stop offset="0.965" stop-color="#269E59" stop-opacity="0"/>
</radialGradient>
<radialGradient id="paint6_radial_638_1459" cx="0" cy="0" r="1" gradientUnits="userSpaceOnUse" gradientTransform="translate(1571.5 186.5) rotate(77.9261) scale(201.925 189.713)">
<stop stop-color="#E1D780"/>
<stop offset="0.965" stop-color="#DECD2F" stop-opacity="0"/>
</radialGradient>
<radialGradient id="paint7_radial_638_1459" cx="0" cy="0" r="1" gradientUnits="userSpaceOnUse" gradientTransform="translate(874.5 353.5) rotate(77.9261) scale(201.925 189.713)">
<stop stop-color="#DD10C9"/>
<stop offset="0.965" stop-color="#E765DA" stop-opacity="0.08"/>
</radialGradient>
<radialGradient id="paint8_radial_638_1459" cx="0" cy="0" r="1" gradientUnits="userSpaceOnUse" gradientTransform="translate(602.5 450.5) rotate(77.9261) scale(201.925 189.713)">
<stop stop-color="#24AE5E"/>
<stop offset="0.965" stop-color="#269E59" stop-opacity="0"/>
</radialGradient>
<radialGradient id="paint9_radial_638_1459" cx="0" cy="0" r="1" gradientUnits="userSpaceOnUse" gradientTransform="translate(699.5 250.5) rotate(77.9261) scale(201.925 189.713)">
<stop stop-color="#E1D780"/>
<stop offset="0.965" stop-color="#DECD2F" stop-opacity="0"/>
</radialGradient>
<radialGradient id="paint10_radial_638_1459" cx="0" cy="0" r="1" gradientUnits="userSpaceOnUse" gradientTransform="translate(1383.5 993.5) rotate(77.9261) scale(201.925 189.713)">
<stop stop-color="#DD10C9"/>
<stop offset="0.965" stop-color="#E765DA" stop-opacity="0.08"/>
</radialGradient>
<radialGradient id="paint11_radial_638_1459" cx="0" cy="0" r="1" gradientUnits="userSpaceOnUse" gradientTransform="translate(1111.5 1090.5) rotate(77.9261) scale(201.925 189.713)">
<stop stop-color="#24AE5E"/>
<stop offset="0.965" stop-color="#269E59" stop-opacity="0"/>
</radialGradient>
<radialGradient id="paint12_radial_638_1459" cx="0" cy="0" r="1" gradientUnits="userSpaceOnUse" gradientTransform="translate(1208.5 890.5) rotate(77.9261) scale(201.925 189.713)">
<stop stop-color="#E1D780"/>
<stop offset="0.965" stop-color="#DECD2F" stop-opacity="0"/>
</radialGradient>
</defs>
</svg>
