<svg width="1919" height="1317" viewBox="0 0 1919 1317" fill="none" xmlns="http://www.w3.org/2000/svg">
<ellipse cx="1879.5" cy="1771" rx="653.5" ry="651" fill="url(#paint0_radial_638_5597)" fill-opacity="0.73"/>
<path d="M1751.96 1407.24C1737.08 1449.18 1740.87 1299.29 1772.26 1294.15C1785.57 1291.97 1820.41 1283.33 1845.57 1303.35C1873.44 1348.8 1917 1329.32 1917 1329.32V1604.74H1474.11L1552.57 1575.79L1503.33 1523.58L1520.1 1478.94C1520.1 1478.94 1571.91 1410.34 1578.27 1428.07C1584.63 1445.8 1640.77 1496.25 1640.77 1496.25L1667.82 1448.09L1714.09 1431.32C1739.79 1465.95 1769.01 1441.33 1785.24 1422.39C1801.48 1403.45 1766.84 1365.3 1751.96 1407.24Z" fill="url(#paint1_radial_638_5597)" fill-opacity="0.7"/>
<path d="M1836.11 1234.9C1815.81 1234.9 1785.24 1168.07 1785.24 1168.07C1864.51 1160.23 1895.02 1122.65 1917 1126.24V1240.85C1917 1240.85 1904.55 1262.5 1893.73 1258.44C1882.91 1254.38 1881.29 1178.63 1860.73 1234.9C1840.16 1291.17 1856.4 1234.9 1836.11 1234.9Z" fill="url(#paint2_radial_638_5597)" fill-opacity="0.7"/>
<path d="M1432.18 1484.35C1464.37 1492.19 1374 1422.39 1374 1422.39C1324 1478.94 1312.5 1539.24 1292 1604.74H1445.97L1416.75 1559.29V1519.79C1416.75 1519.79 1399.98 1476.5 1432.18 1484.35Z" fill="url(#paint3_radial_638_5597)" fill-opacity="0.7"/>
<path d="M1648.23 1260.96C1633.96 1201.14 1694.49 1288.31 1715.59 1284.53C1736.69 1280.74 1704.77 1211.21 1727.23 1205.8C1749.68 1200.39 1722.73 1139.65 1700 1144.25C1590.81 1166.35 1448.5 1275 1412.5 1315C1412.5 1315 1485.5 1320.78 1544.6 1320.78C1593.3 1290 1662.5 1320.78 1648.23 1260.96Z" fill="url(#paint4_radial_638_5597)"/>
<path d="M1652.62 963.501L1660.16 973.82C1660.16 973.82 1652.1 977.699 1645.78 985.163C1641.37 978.993 1632.97 978.789 1633.44 973.82C1633.84 969.581 1637.58 967.959 1640.93 965.332C1644.81 962.292 1652.62 963.501 1652.62 963.501Z" fill="#C23737" stroke="#5C5C5C"/>
<path d="M1667.81 1040.25C1661.62 1024.38 1654.59 1025.26 1654.59 1012.49C1662.08 1016.45 1673.98 1033.64 1673.98 1033.64C1673.98 1033.64 1673.98 1059.2 1675.74 1070.21C1667.81 1061.4 1672.21 1051.52 1667.81 1040.25Z" fill="#F3F3F3" stroke="#A49D9D" stroke-width="0.5"/>
<circle cx="1712.63" cy="980.039" r="66.9834" transform="rotate(25.1715 1712.63 980.039)" fill="#F3F3F3"/>
<path d="M1675.82 1138.29C1675.82 1138.29 1675.86 1131.49 1679.14 1119.6C1679.14 1119.6 1673.55 1066.6 1673.87 1035.4C1696.02 1029.67 1748.86 1039.16 1748.86 1039.16C1763.61 1056.95 1753.53 1040.45 1760.49 1066.6C1764.39 1081.23 1747.47 1145.35 1747.47 1145.35L1745.81 1167.6L1753.11 1191.19L1682.98 1181.96L1673.55 1175.1L1673.87 1158.6L1677.49 1138.88L1675.82 1138.29Z" fill="#F3F3F3"/>
<path d="M1747.47 1145.35C1747.47 1145.35 1764.39 1081.23 1760.49 1066.6C1753.53 1040.45 1763.61 1056.95 1748.86 1039.16C1748.86 1039.16 1696.02 1029.67 1673.87 1035.4C1673.55 1066.6 1679.14 1119.6 1679.14 1119.6C1675.86 1131.49 1675.82 1138.29 1675.82 1138.29L1690.29 1143.37M1747.47 1145.35L1690.29 1143.37M1747.47 1145.35L1677.52 1138.76L1673.87 1158.6L1673.55 1175.1L1682.98 1181.96M1747.47 1145.35L1745.81 1167.6M1682.98 1181.96L1690.29 1143.37M1682.98 1181.96L1753.11 1191.19L1745.81 1167.6M1745.81 1167.6L1741.85 1167.6M1745.81 1167.6L1741.85 1169.37M1709.95 1060.9C1709.95 1060.9 1716.94 1048.84 1724.25 1048.84C1750.54 1048.82 1736.88 1113.56 1736.29 1126.21L1690.29 1116.05L1709.95 1092.25L1709.95 1060.9Z" stroke="#5C5C5C" stroke-width="0.5"/>
<path d="M1661.04 1178.61C1665.52 1169.42 1673.96 1174.85 1673.96 1174.85L1706.28 1186.96C1706.28 1186.96 1654.59 1191.84 1661.04 1178.61Z" fill="#AF4747" stroke="#5C5C5C"/>
<path d="M1669.42 1181.37C1678.69 1175.7 1687.06 1177.09 1687.06 1177.09L1752.69 1191.07C1752.69 1191.07 1647.55 1194.77 1669.42 1181.37Z" fill="#C23737" stroke="#5C5C5C"/>
<path d="M1689.85 1130.23C1688.52 1126.34 1693.59 1122.77 1695.99 1117.99L1731.71 1125.3C1731.71 1125.3 1724.94 1134.71 1718.93 1136.76C1711.7 1139.22 1702.26 1141.25 1699.54 1134.11C1698.44 1131.22 1699.54 1126.18 1699.54 1126.18C1699.54 1126.18 1691.17 1134.11 1689.85 1130.23Z" fill="#C23737" stroke="#5C5C5C"/>
<path d="M1661.8 969.273C1670.38 951.512 1674.58 945.035 1690.88 941.069C1700.4 958.693 1704.69 978.093 1704.69 978.093L1663.56 998.358C1663.56 998.358 1656.51 983.815 1661.8 969.273Z" fill="#EFDBA9"/>
<path d="M1677.61 926.087C1702.63 950.996 1703.34 979.082 1703.34 979.082C1703.34 979.082 1650.86 1009.93 1649.69 1002.07C1620.56 989.781 1643.83 923.36 1677.61 926.087Z" fill="#5AF5FF" fill-opacity="0.34" stroke="#5C5C5C"/>
<circle cx="1706.3" cy="980.175" r="3.02544" transform="rotate(25.1715 1706.3 980.175)" fill="#F3F3F3" stroke="#5C5C5C"/>
<path d="M1669.13 1058.32C1669.13 1058.32 1688.19 1049.03 1696.02 1053.91C1696.02 1060.96 1698.66 1073.74 1700.42 1084.32C1693.71 1085.86 1674.86 1090.49 1674.86 1090.49L1669.13 1090.49L1669.13 1058.32Z" fill="#F3F3F3"/>
<path d="M1700.42 1084.32C1698.66 1073.74 1696.02 1060.96 1696.02 1053.91C1688.19 1049.03 1669.13 1058.32 1669.13 1058.32L1669.13 1090.49M1700.42 1084.32C1691.99 1084.66 1669.13 1090.49 1669.13 1090.49M1700.42 1084.32C1693.71 1085.86 1674.86 1090.49 1674.86 1090.49L1669.13 1090.49" stroke="#5C5C5C" stroke-width="0.5"/>
<path d="M1681.47 1090.49L1677.07 1090.49L1678.83 1092.69" stroke="#5C5C5C" stroke-width="0.5"/>
<circle cx="1741.85" cy="934.044" r="5.28817" fill="white"/>
<path d="M1713.52 1091.27L1709.74 1092.38L1713.52 1093.13" stroke="#5C5C5C" stroke-width="0.5"/>
<path d="M1679.27 1119.57L1682.35 1118.25" stroke="#5C5C5C" stroke-width="0.5"/>
<circle cx="1672.22" cy="931.4" r="2.64408" fill="white"/>
<circle cx="1744.49" cy="1045.98" r="2.64408" fill="white"/>
<path d="M1773.58 967.095C1771.37 956.519 1766.08 953.875 1759.47 942.858C1755.56 943.934 1751.1 942.858 1751.1 949.027C1751.1 955.197 1761.24 955.197 1766.08 971.942C1769.45 971.048 1771.35 969.776 1773.58 967.095Z" fill="white"/>
<path d="M1686.32 943.445C1685.46 938.958 1683.38 937.836 1680.79 933.163C1679.26 933.619 1677.51 933.163 1677.51 935.78C1677.51 938.397 1681.48 938.397 1683.38 945.502C1684.7 945.122 1685.45 944.582 1686.32 943.445Z" fill="white"/>
<path d="M1756.39 1074.18C1757.27 1068.01 1756.39 1060.52 1751.3 1052.15C1749.76 1052.6 1748.02 1052.15 1748.02 1054.76C1749.78 1056.99 1754.63 1068.45 1754.63 1075.5C1755.95 1075.12 1755.52 1075.32 1756.39 1074.18Z" fill="white"/>
<path d="M1736.56 1057.43C1736.56 1057.43 1740.97 1064.93 1740.97 1073.74" stroke="#5C5C5C" stroke-width="0.5"/>
<path d="M1668.25 1040.25L1670.9 1038.04" stroke="#A49D9D" stroke-width="0.5"/>
<g filter="url(#filter0_d_638_5597)">
<path d="M241.912 330.795C281.866 347.172 445.445 506.106 499.092 611.007C532.909 677.133 755.542 578.426 848.501 778C878.201 841.763 879.501 964.5 1031 1034C1124.91 1077.08 1194.21 1204.84 1217.5 1312C1337.9 1307.19 1224.65 1319.4 1410 1312C1611.5 1151 1675.19 1126.12 1916 1116.5L1916 964.5C1563 889 1539.37 659.622 1473.22 640.506C1356.31 645.176 1245 611.007 1207.77 534.436C1170.55 457.865 697.584 442.292 697.584 442.292C607.166 377.73 506.452 176.346 360.5 215.5C265.159 241.077 178.44 292.395 145.5 307.5C98.3312 329.13 200.808 313.946 241.912 330.795Z" fill="url(#paint5_linear_638_5597)" fill-opacity="0.5" shape-rendering="crispEdges"/>
</g>
<path d="M1157.34 504.421C1000.09 451.245 877.45 597.048 854.012 602.606C819.918 610.691 662.354 452.136 662.736 411.588C671.569 425.505 685.112 438.717 698.146 446.202C753.502 441.489 969.351 408.348 1157.34 504.421Z" fill="url(#paint6_linear_638_5597)" fill-opacity="0.19"/>
<path d="M296.211 387.244C312.151 400.525 261.631 339.777 238.492 330.163C215.352 320.549 172.237 325.52 142.126 332.168C112.016 338.816 232.192 333.9 296.211 387.244Z" fill="url(#paint7_linear_638_5597)" fill-opacity="0.59"/>
<path d="M913.425 599.232C860.431 638.377 795.963 710.54 829.563 767.212C863.6 824.621 946.84 697.337 1007.28 669.041C1054.97 646.719 1280.97 657.697 1305.35 614.601C1273.08 595.875 1156.82 503.942 1128.46 495.567C1049.4 472.216 984.226 546.934 913.425 599.232Z" fill="url(#paint8_linear_638_5597)" fill-opacity="0.17"/>
<path d="M1310.98 756.168C1257.99 795.313 1193.52 867.476 1227.12 924.148C1261.16 981.556 1344.4 854.273 1404.84 825.976C1452.52 803.654 1609.62 856.595 1634 813.5C1601.73 794.773 1513.4 661.835 1485.05 653.46C1405.98 630.11 1381.78 703.87 1310.98 756.168Z" fill="url(#paint9_linear_638_5597)" fill-opacity="0.17"/>
<path d="M225 197C225 234.555 194.555 265 157 265C119.445 265 89 234.555 89 197C89 159.445 119.445 129 157 129C194.555 129 225 159.445 225 197Z" fill="url(#paint10_linear_638_5597)"/>
<defs>
<filter id="filter0_d_638_5597" x="129.344" y="210.494" width="1790.66" height="1111.95" filterUnits="userSpaceOnUse" color-interpolation-filters="sRGB">
<feFlood flood-opacity="0" result="BackgroundImageFix"/>
<feColorMatrix in="SourceAlpha" type="matrix" values="0 0 0 0 0 0 0 0 0 0 0 0 0 0 0 0 0 0 127 0" result="hardAlpha"/>
<feOffset dy="4"/>
<feGaussianBlur stdDeviation="2"/>
<feComposite in2="hardAlpha" operator="out"/>
<feColorMatrix type="matrix" values="0 0 0 0 0.0387882 0 0 0 0 0.0975476 0 0 0 0 0.320833 0 0 0 0.47 0"/>
<feBlend mode="normal" in2="BackgroundImageFix" result="effect1_dropShadow_638_5597"/>
<feBlend mode="normal" in="SourceGraphic" in2="effect1_dropShadow_638_5597" result="shape"/>
</filter>
<radialGradient id="paint0_radial_638_5597" cx="0" cy="0" r="1" gradientUnits="userSpaceOnUse" gradientTransform="translate(1557.85 1274.61) rotate(45.2707) scale(672.751 675.588)">
<stop stop-color="#2984D8"/>
<stop offset="1" stop-color="#0C2F50"/>
</radialGradient>
<radialGradient id="paint1_radial_638_5597" cx="0" cy="0" r="1" gradientUnits="userSpaceOnUse" gradientTransform="translate(1688.93 1389.11) rotate(43.3933) scale(313.868 203.959)">
<stop stop-color="#40BA4D"/>
<stop offset="1" stop-color="#215F27"/>
</radialGradient>
<radialGradient id="paint2_radial_638_5597" cx="0" cy="0" r="1" gradientUnits="userSpaceOnUse" gradientTransform="translate(1688.93 1389.11) rotate(43.3933) scale(313.868 203.959)">
<stop stop-color="#40BA4D"/>
<stop offset="1" stop-color="#215F27"/>
</radialGradient>
<radialGradient id="paint3_radial_638_5597" cx="0" cy="0" r="1" gradientUnits="userSpaceOnUse" gradientTransform="translate(1688.93 1389.11) rotate(43.3933) scale(313.868 203.959)">
<stop stop-color="#40BA4D"/>
<stop offset="1" stop-color="#215F27"/>
</radialGradient>
<radialGradient id="paint4_radial_638_5597" cx="0" cy="0" r="1" gradientUnits="userSpaceOnUse" gradientTransform="translate(1775.38 1305.36) rotate(-149.129) scale(201.418 109.605)">
<stop stop-color="#2B7E4E"/>
<stop offset="0.910033" stop-color="#328D59"/>
</radialGradient>
<linearGradient id="paint5_linear_638_5597" x1="320.055" y1="246.552" x2="1294.07" y2="884.191" gradientUnits="userSpaceOnUse">
<stop stop-color="#FDFEC5"/>
<stop offset="0.100498" stop-color="#F4F4DA" stop-opacity="0.657673"/>
<stop offset="0.620845" stop-color="#F4F4DA" stop-opacity="0.42"/>
<stop offset="1" stop-color="#494949" stop-opacity="0.19"/>
</linearGradient>
<linearGradient id="paint6_linear_638_5597" x1="858.578" y1="441.295" x2="852.055" y2="601.69" gradientUnits="userSpaceOnUse">
<stop stop-color="#010B32" stop-opacity="0.4"/>
<stop offset="1" stop-color="#010B32" stop-opacity="0"/>
</linearGradient>
<linearGradient id="paint7_linear_638_5597" x1="236.523" y1="330.512" x2="227.6" y2="360.536" gradientUnits="userSpaceOnUse">
<stop offset="0.23" stop-color="#030E34"/>
<stop offset="1" stop-color="#001457" stop-opacity="0.14"/>
</linearGradient>
<linearGradient id="paint8_linear_638_5597" x1="1181.67" y1="562.496" x2="1060.19" y2="502.797" gradientUnits="userSpaceOnUse">
<stop stop-color="#7E8FAC" stop-opacity="0.01"/>
<stop offset="0.501485" stop-color="#7E8FAC" stop-opacity="0.5"/>
<stop offset="1" stop-color="#7E8FAC" stop-opacity="0.01"/>
</linearGradient>
<linearGradient id="paint9_linear_638_5597" x1="1579.23" y1="719.432" x2="1457.75" y2="659.733" gradientUnits="userSpaceOnUse">
<stop stop-color="#7E8FAC" stop-opacity="0.01"/>
<stop offset="0.501485" stop-color="#7E8FAC" stop-opacity="0.5"/>
<stop offset="1" stop-color="#7E8FAC" stop-opacity="0.01"/>
</linearGradient>
<linearGradient id="paint10_linear_638_5597" x1="105" y1="148" x2="202" y2="243.5" gradientUnits="userSpaceOnUse">
<stop stop-color="#FDFFF2"/>
<stop offset="1" stop-color="#C7CCA9"/>
</linearGradient>
</defs>
</svg>
