<svg width="693" height="197" viewBox="0 0 693 197" fill="none" xmlns="http://www.w3.org/2000/svg">
<ellipse cx="653.5" cy="651" rx="653.5" ry="651" fill="url(#paint0_radial_620_3333)"/>
<path d="M525.965 287.24C511.085 329.175 514.872 179.291 546.256 174.15C559.566 171.97 594.414 163.328 619.575 183.349C647.442 228.801 691 209.322 691 209.322V484.741H248.11L326.57 455.792L277.33 403.576L294.104 358.936C294.104 358.936 345.915 290.345 352.272 308.072C358.629 325.8 414.769 376.251 414.769 376.251L441.824 328.093L488.088 311.319C513.79 345.949 543.009 321.329 559.242 302.391C575.475 283.452 540.845 245.305 525.965 287.24Z" fill="url(#paint1_radial_620_3333)" fill-opacity="0.7"/>
<path d="M610.106 114.9C589.815 114.9 559.242 48.0742 559.242 48.0742C638.513 40.2283 669.023 2.64902 691 6.24133V120.852C691 120.852 678.555 142.496 667.733 138.438C656.911 134.379 655.287 58.6256 634.726 114.9C614.164 171.174 630.397 114.9 610.106 114.9Z" fill="url(#paint2_radial_620_3333)" fill-opacity="0.7"/>
<path d="M206.175 364.347C238.371 372.193 148 302.391 148 302.391C98 358.936 86.5 419.241 66 484.741H219.973L190.754 439.289V399.789C190.754 399.789 173.98 356.501 206.175 364.347Z" fill="url(#paint3_radial_620_3333)" fill-opacity="0.7"/>
<path d="M422.229 140.961C407.959 81.1412 468.489 168.315 489.591 164.527C510.694 160.739 478.769 91.2081 501.225 85.7971C523.681 80.3862 496.726 19.6491 474 24.2484C364.809 46.3462 222.5 155 186.5 195C186.5 195 259.5 200.781 318.604 200.781C367.303 170 436.5 200.781 422.229 140.961Z" fill="url(#paint4_radial_620_3333)"/>
<defs>
<radialGradient id="paint0_radial_620_3333" cx="0" cy="0" r="1" gradientUnits="userSpaceOnUse" gradientTransform="translate(331.849 154.608) rotate(45.2707) scale(672.751 675.588)">
<stop stop-color="#206FB9"/>
<stop offset="1" stop-color="#08233C"/>
</radialGradient>
<radialGradient id="paint1_radial_620_3333" cx="0" cy="0" r="1" gradientUnits="userSpaceOnUse" gradientTransform="translate(462.926 269.113) rotate(43.3933) scale(313.868 203.959)">
<stop stop-color="#40BA4D"/>
<stop offset="1" stop-color="#215F27"/>
</radialGradient>
<radialGradient id="paint2_radial_620_3333" cx="0" cy="0" r="1" gradientUnits="userSpaceOnUse" gradientTransform="translate(462.926 269.113) rotate(43.3933) scale(313.868 203.959)">
<stop stop-color="#40BA4D"/>
<stop offset="1" stop-color="#215F27"/>
</radialGradient>
<radialGradient id="paint3_radial_620_3333" cx="0" cy="0" r="1" gradientUnits="userSpaceOnUse" gradientTransform="translate(462.926 269.113) rotate(43.3933) scale(313.868 203.959)">
<stop stop-color="#40BA4D"/>
<stop offset="1" stop-color="#215F27"/>
</radialGradient>
<radialGradient id="paint4_radial_620_3333" cx="0" cy="0" r="1" gradientUnits="userSpaceOnUse" gradientTransform="translate(549.382 185.36) rotate(-149.129) scale(201.418 109.605)">
<stop stop-color="#2B7E4E"/>
<stop offset="0.910033" stop-color="#328D59"/>
</radialGradient>
</defs>
</svg>
